<?xml version="1.0" encoding="utf-8"?>
<!-- Generator: Adobe Illustrator 27.1.1, SVG Export Plug-In . SVG Version: 6.00 Build 0)  -->
<svg version="1.1" id="Aircraft" xmlns="http://www.w3.org/2000/svg" xmlns:xlink="http://www.w3.org/1999/xlink" x="0px" y="0px"
	 viewBox="0 0 414.7 414.7" style="enable-background:new 0 0 414.7 414.7;" xml:space="preserve">
<style type="text/css">
	.st0{fill:#F5F5F5;}
</style>
<path class="st0" d="M209,42.5c-4,4.9-7,24.4-8.1,35.6c0,0-4.8,7.3-5.7,8.7s-0.6,1.9-0.5,2.7c0,0,2.4-1,5.1-1.8
	c-0.4,3-1.8,20.2-3,34.2s-4.2,30.1-5.1,36.4c-0.9,3-3,9.2-7.1,21.2c-4.1,12-10.3,22.9-11.1,24.2c-0.7,1.3-1.4,2.3-1.4,2.3l-0.3,0.9
	c0,0-111.6,47.1-113.3,47.8s-2.3,1.9-2.4,3c-0.1,1-0.6,2.6-0.4,4c0.1,1.4,1.3,9.5,1.5,10.7c0.1,1.2,0.2,1.7,1.3,1.5
	c1.1-0.2,100.5-21.6,101.2-21.9c0.7-0.2,1.2-0.6,1.5-1c0.3-0.4,8.5-14,8.5-14s-1,9.9-2,22.4c-1,12.5-0.3,25.1-0.2,28.8
	c0,2.7,0.5,4.3,1.6,5.8c0,0,4.9,0,8,0c0.9-1.6,1.2-3.1,1.5-5.5c0,0,0.8,0,1.6,0c0.3,2.6,0.5,4.2,1.9,5.7c0,0,6.2,0,7.3,0
	c0.5-0.5,1.8-2.4,2-5.7c0,0,5.2,29.9,6.1,35.6c0,0-34.6,29.8-38.7,33.2c-4.1,3.4-3.8,6.3-3.8,7.4s0,7.1,0,8.1c0,1,0.2,1.4,0.6,1.2
	c0.4-0.2,45-17.7,45-17.7v-3.7l0.7-0.5c0,0,2.5,12.7,2.8,14.2c0.3,1.5,0.9,2.1,1.8,2.6s1.5,0.9,3.2,0.9l0,0h0l0,0l0,0
	c1.7,0,2.4-0.4,3.2-0.9c0.8-0.6,1.4-1.2,1.8-2.6c0.3-1.5,2.8-14.2,2.8-14.2l0.7,0.5v3.7c0,0,44.6,17.5,45,17.7
	c0.4,0.2,0.6-0.1,0.6-1.2c0-1,0-7,0-8.1s0.3-4-3.8-7.4c-4.1-3.4-38.7-33.2-38.7-33.2c0.9-5.7,6.1-35.6,6.1-35.6
	c0.3,3.3,1.5,5.1,2,5.7c1.1,0,7.3,0,7.3,0c1.3-1.4,1.6-3,1.9-5.7c0.8,0,1.6,0,1.6,0c0.3,2.4,0.6,3.9,1.5,5.5c3.1,0,8,0,8,0
	c1.1-1.5,1.6-3.1,1.6-5.8c0.1-3.7,0.8-16.3-0.2-28.8c-1-12.5-2-22.4-2-22.4s8.2,13.5,8.5,14c0.3,0.4,0.7,0.8,1.5,1
	c0.7,0.2,100.1,21.6,101.2,21.9c1.1,0.2,1.2-0.3,1.3-1.5c0.1-1.2,1.3-9.3,1.5-10.7c0.1-1.4-0.4-3-0.4-4s-0.7-2.2-2.4-3
	c-1.7-0.7-113.3-47.8-113.3-47.8L246,206c0,0-0.7-1-1.4-2.3c-0.7-1.3-6.9-12.2-11.1-24.2s-6.3-18.2-7.1-21.2
	c-0.9-6.3-3.8-22.4-5.1-36.4s-2.7-31.2-3-34.2c2.7,0.8,5.1,1.8,5.1,1.8c0.1-0.8,0.4-1.3-0.5-2.7c-0.9-1.4-5.7-8.7-5.7-8.7
	C216,66.8,213,47.4,209,42.5"/>
</svg>