<?xml version="1.0" encoding="utf-8"?>
<!-- Generator: Adobe Illustrator 27.1.1, SVG Export Plug-In . SVG Version: 6.00 Build 0)  -->
<svg version="1.1" id="Layer_2" xmlns="http://www.w3.org/2000/svg" xmlns:xlink="http://www.w3.org/1999/xlink" x="0px" y="0px"
	 viewBox="0 0 414.7 414.7" style="enable-background:new 0 0 414.7 414.7;" xml:space="preserve">
<style type="text/css">
	.st0{fill:#F5F5F5;}
</style>
<polygon class="st0" points="207.4,190.1 102.3,372.3 312.6,372.3 "/>
<path class="st0" d="M116.2,151.4l26,26c16.8-16.6,39.8-26.9,65.2-26.9s48.5,10.3,65.2,26.9l26-26c-23.4-23.4-55.7-37.8-91.2-37.8
	S139.6,128,116.2,151.4z M207.4,39.9c-56,0-106.7,22.7-143.4,59.3l26,26c30-29.9,71.5-48.5,117.4-48.5s87.4,18.6,117.2,48.7l26-26
	C314.1,62.6,263.5,39.9,207.4,39.9z"/>
</svg>