<svg viewBox="0 0 41 44" width="41" height="44" fill="none" xmlns="http://www.w3.org/2000/svg">
  <defs>
    <clipPath id="clip0">
      <rect width="41" height="44" fill="black"/>
    </clipPath>
  </defs>
  <g clip-path="url(#clip0)" style="" transform="matrix(0.338544, 0, 0, 0.277375, 12.911226, 16.618353)">
    <path d="M7.46174 15.8547L11.1794 19.5497C12.404 18.3295 13.8588 17.3614 15.4605 16.7008C17.0621 16.0402 18.7791 15.7002 20.5132 15.7002C22.2472 15.7002 23.9643 16.0402 25.5659 16.7008C27.1675 17.3614 28.6223 18.3295 29.8469 19.5497L33.5646 15.8547C31.8508 14.1511 29.816 12.7997 27.5766 11.8777C25.3373 10.9557 22.9371 10.4811 20.5132 10.4811C18.0893 10.4811 15.6891 10.9557 13.4497 11.8777C11.2103 12.7997 9.17561 14.1511 7.46174 15.8547V15.8547ZM20.5132 1.58766e-06C16.704 -0.00125491 12.9318 0.743309 9.4121 2.19118C5.89241 3.63904 2.69416 5.76184 0 8.43835L3.71768 12.1334C5.92131 9.94248 8.53762 8.2045 11.4172 7.01874C14.2967 5.83298 17.3831 5.22266 20.5 5.22266C23.6169 5.22266 26.7033 5.83298 29.5828 7.01874C32.4624 8.2045 35.0787 9.94248 37.2823 12.1334L41 8.59559C38.3317 5.88093 35.1455 3.72248 31.6278 2.24656C28.1101 0.770635 24.3315 0.00688581 20.5132 1.58766e-06V1.58766e-06Z" fill="black"/>
    <path d="M21.7788 22.4061C21.6438 22.1779 21.4511 21.9886 21.2199 21.8572C20.9887 21.7257 20.7269 21.6565 20.4605 21.6565C20.1941 21.6565 19.9323 21.7257 19.7011 21.8572C19.4698 21.9886 19.2772 22.1779 19.1422 22.4061L7.85727 41.8248C7.72736 42.0431 7.65881 42.292 7.65881 42.5455C7.65881 42.7991 7.72736 43.048 7.85727 43.2662C7.98574 43.4874 8.17007 43.6714 8.39204 43.8001C8.614 43.9288 8.86591 43.9977 9.12287 43.9999H31.6926C31.9496 43.9977 32.2015 43.9288 32.4235 43.8001C32.6454 43.6714 32.8298 43.4874 32.9582 43.2662C33.0882 43.048 33.1567 42.7991 33.1567 42.5455C33.1567 42.292 33.0882 42.0431 32.9582 41.8248L21.7788 22.4061Z" fill="black"/>
  </g>
</svg>