<?xml version="1.0" encoding="utf-8"?>
<!-- Generator: Adobe Illustrator 27.1.1, SVG Export Plug-In . SVG Version: 6.00 Build 0)  -->
<svg version="1.1" id="Aircraft" xmlns="http://www.w3.org/2000/svg" xmlns:xlink="http://www.w3.org/1999/xlink" x="0px" y="0px"
	 viewBox="0 0 414.7 414.7" style="enable-background:new 0 0 414.7 414.7;" xml:space="preserve">
<style type="text/css">
	.st0{fill:#F5F5F5;}
</style>
<path class="st0" d="M315.8,277.2c-0.7-1.5-0.3-2.5-2.3-4.9c-2-2.5-46.8-47.3-51.5-52c-4.8-4.7-20-20.2-20-20.2
	c0-5.9-0.3-8.3-0.3-8.3c-1,0.7-1,0.7-1,0.7c-0.5-7.1-3.4-18.6-4.4-22.2c-1-3.6-2.5-7.8-2.5-11.8s-0.5-24.1-0.6-24.3
	c-0.1-0.3-0.6-0.4-1.4-0.4c-0.8,0-10.1,0-10.8,0s-1.1,0.5-1.1,1.2s-0.7,22.1-0.7,22.1l-1.1-1.1c0,0,0.3-39.2,0.1-44.1
	s-0.8-7.5-1.2-12.5s-1.3-34.7-9.5-48.9c-8.2,14.2-9.2,43.9-9.5,48.9s-1,7.5-1.2,12.5c-0.2,4.9,0.1,44.1,0.1,44.1l-1.1,1.1
	c0,0-0.7-21.4-0.7-22.1c0-0.7-0.4-1.2-1.1-1.2s-9.9,0-10.8,0c-0.8,0-1.4,0.2-1.4,0.4c-0.1,0.3-0.6,20.4-0.6,24.3s-1.4,8.1-2.5,11.8
	c-1,3.6-3.9,15.1-4.4,22.2c0,0,0,0-1-0.7c0,0-0.3,2.4-0.3,8.3c0,0-15.3,15.5-20,20.2c-4.8,4.7-49.6,49.5-51.5,52
	c-2,2.5-1.6,3.4-2.3,4.9c-0.7,1.5-1,2.2-0.4,4.2s7.7,14.8,10,17.6s4.3,2.1,6.5,1.7s26.6-6.4,26.6-6.4s26.4,0,31.3,0
	c0.4,9.9,1.4,15.8,1.4,15.8l-11.5,11.6v-4.9c0,0-23.6,27.9-25.5,30c-2,2.1-1.1,5.8-0.8,6.8s2.3,4.6,6,10l35.1-7v-8l0.7-3.3
	c0,0,0.4,6.9,0.5,8s1.6,1.4,2.1,0.3s3.4-13.2,3.8-14.4c0.4-1.2,0.7-2.3,0.7-3.1s0-12.2,0-12.2l1,0.5l2.3,8.5c0,0-1.6,6.5-2.3,9.6
	c1.3,0.7,4.8,1.3,8.8,1.3s7.5-0.8,8.7-1.9l-2-9.2l2-8.2l1.7-0.5h1.7h1.7l1.7,0.5l2,8.2l-2,9.2c1.2,1.1,4.7,1.9,8.7,1.9
	s7.5-0.6,8.8-1.3c-0.7-3.1-2.3-9.6-2.3-9.6l2.3-8.5l1-0.5c0,0,0,11.5,0,12.2s0.3,1.9,0.7,3.1s3.3,13.3,3.8,14.4s2,0.8,2.1-0.3
	c0.1-1.1,0.5-8,0.5-8l0.7,3.3v8l35.1,7c3.7-5.4,5.7-9,6-10s1.2-4.7-0.8-6.8c-2-2.1-25.5-30-25.5-30v4.9l-11.5-11.6
	c0,0,1-5.9,1.4-15.8c4.9,0,31.3,0,31.3,0s24.4,5.9,26.6,6.4s4.2,1.2,6.5-1.7s9.4-15.7,10-17.6C316.8,279.4,316.4,278.7,315.8,277.2z
	"/>
</svg>