<?xml version="1.0" encoding="utf-8"?>
<!-- Generator: Adobe Illustrator 27.1.1, SVG Export Plug-In . SVG Version: 6.00 Build 0)  -->
<svg version="1.1" id="Aircraft" xmlns="http://www.w3.org/2000/svg" xmlns:xlink="http://www.w3.org/1999/xlink" x="0px" y="0px"
	 viewBox="0 0 414.7 414.7" style="enable-background:new 0 0 414.7 414.7;" xml:space="preserve">
    <style type="text/css">
        .st0{fill:#F5F5F5;}
    </style>
    <path class="st0" d="M209,49.9c0,0-0.3,5.5-0.7,11.8c-7.3,17.4-9.1,34.9-9.1,34.9l-2.2,0.5l1.9,0.5c0,0-0.2,1.7-0.8,5
        c-0.7,0.7-0.6,2.1-0.4,3.2c0,0-2.2,11.9-2.7,14.9s-0.9,5.2-1,6.4c-0.2,1.2-1,11.7-1.1,13.8c-0.2,2.1-0.6,3.6-1.1,6.4
        c-0.6,2.8-2.9,14.9-3.3,17.4c-0.4,2.5-1.6,7.4-1.9,8.4c-0.3,1-3.2,9.4-3.9,11.3c-0.7,1.9-1.1,3.4-1.3,4.4s-2,15.2-2,15.2l-56.8,45.6
        c0,0,0-4.6,0-5s-0.5-0.8-1-0.8s-1.1,0.3-1.1,0.9c0,0.6,0,6.7,0,6.7l-10.3,8.3c0,0,0.2-9.4,0-11.5s-1.8-16.2-1.8-16.2l-1.9-2.3
        c0,0,0,57.7,0,58s0.1,1.9,1.8,1.9s1.8-1.8,1.8-1.8v-3.2h6.2l0.4,7.5l0.3-7.5h4.1l0.3,7.5l0.3-7.5h7.5l0.5,7.4l0.3-7.4h55.8v24.8
        c0,0-36.5,31.5-37.3,32.3c-0.7,0.7-0.7,1-0.7,1.9s0,9.7,0,10.8s0.6,1.9,0.6,1.9l4.9,4.3h31.9l0.6-0.6v-5.2h7.7l0.7-0.7v-24.9h0.7
        c1.3,10.1,3.4,20.3,5.7,28.5h8.4l0,0h8.4c2.3-8.2,4.4-18.4,5.7-28.5h0.7v24.9l0.7,0.7h7.7v5.2l0.6,0.6h31.9l4.9-4.3
        c0,0,0.6-0.7,0.6-1.9s0-10,0-10.8c0-0.9,0-1.1-0.7-1.9c-0.7-0.7-37.3-32.3-37.3-32.3v-24.8H288l0.3,7.4l0.5-7.4h7.5l0.3,7.5l0.3-7.5
        h4.1l0.3,7.5l0.4-7.5h6.2v3.2c0,0,0.2,1.8,1.8,1.8s1.8-1.7,1.8-1.9s0-58,0-58l-1.9,2.3c0,0-1.5,14.1-1.8,16.2
        c-0.2,2.1,0,11.5,0,11.5l-10.3-8.3c0,0,0-6.1,0-6.7c0-0.6-0.6-0.9-1.1-0.9s-1,0.4-1,0.8c0,0.4,0,5,0,5L238.8,204
        c0,0-1.9-14.1-2-15.2c-0.2-1-0.6-2.5-1.3-4.4s-3.6-10.4-3.9-11.3c-0.3-1-1.5-5.9-1.9-8.4s-2.7-14.6-3.3-17.4c-0.6-2.8-1-4.3-1.1-6.4
        c-0.2-2.1-1-12.6-1.1-13.8c-0.2-1.2-0.6-3.5-1-6.4c-0.5-3-2.7-14.9-2.7-14.9c0.2-1.1,0.3-2.5-0.4-3.2c-0.6-3.3-0.8-5-0.8-5l1.9-0.5
        l-2.2-0.5c0,0-1.9-17.4-9.1-34.9C209.4,55.3,209,49.9,209,49.9"/>
</svg>