<?xml version="1.0" encoding="utf-8"?>
<!-- Generator: Adobe Illustrator 27.1.1, SVG Export Plug-In . SVG Version: 6.00 Build 0)  -->
<svg version="1.1" id="Aircraft" xmlns="http://www.w3.org/2000/svg" xmlns:xlink="http://www.w3.org/1999/xlink" x="0px" y="0px"
	 viewBox="0 0 414.7 414.7" style="enable-background:new 0 0 414.7 414.7;" xml:space="preserve">
<style type="text/css">
	.st0{fill:#F5F5F5;}
</style>
<path class="st0" d="M243.4,189.7l-3.6-45.5l-17.6-16c0,0-0.9-64.2-14.8-80.1V48l0,0l0,0v0.1c-13.9,15.9-14.8,80.1-14.8,80.1
	l-17.6,16l-3.6,45.5l-79.2,73.4v19l13.5,11.8l45.4,14.9v11.5l-20.2,18.1v20.8l28.5,9l27.7-25.9v-17.1l7.9,6.8l8.2-7.4v17.2l2,2.6
	h2.1l0,0h2.1l2-2.6v-17.2l8.2,7.4l7.9-6.8v17.1l27.7,25.9l28.5-9v-20.8l-20.2-18.1v-11.5L309,294l13.5-11.8v-19L243.4,189.7z"/>
</svg>