<?xml version="1.0" encoding="utf-8"?>
<!-- Generator: Adobe Illustrator 27.1.1, SVG Export Plug-In . SVG Version: 6.00 Build 0)  -->
<svg version="1.1" id="Layer_2_00000060731407771314911630000012785343898300245400_"
	 xmlns="http://www.w3.org/2000/svg" xmlns:xlink="http://www.w3.org/1999/xlink" x="0px" y="0px" viewBox="0 0 414.7 414.7"
	 style="enable-background:new 0 0 414.7 414.7;" xml:space="preserve">
<style type="text/css">
	.st0{fill:#F5F5F5;}
</style>
<path class="st0" d="M329.7,253.4c-0.2-1-0.3-1.1-1.2-1.7c-0.9-0.6-68.4-42.5-71-44.1c-0.1,0-0.1-0.1-0.1-0.1l-8.8-13.7
	c0-0.1-0.1-0.1-0.1-0.2l-4.9-54.4c0,0,0-0.1,0-0.1l-1.3-4.4c-0.1-0.3-0.5-0.4-0.8-0.2l-7.5,8.1c-0.1,0.1-0.3,0.2-0.4,0.1
	c-0.4-0.1-1.3-0.3-1.6-0.4c-0.4-0.1-1.3-1.8-1.3-3.3c0-1.4-1.7-7.3-3.4-13.4c0,0,0,0,0-0.1c-0.5-3.8-6.4-46.1-7-49.8
	C219.6,72.1,217,61,209.5,51c-0.2-0.3-0.7-0.3-0.9,0c-7.6,10-10.1,21.1-10.7,24.8c-0.6,3.7-6.5,46-7,49.8c0,0,0,0,0,0.1
	c-1.7,6.1-3.4,12-3.4,13.4c0,1.4-0.9,3.1-1.3,3.3c-0.3,0.1-1.1,0.3-1.6,0.4c-0.2,0-0.3,0-0.4-0.1l-7.5-8.1c-0.2-0.3-0.7-0.2-0.8,0.2
	l-1.3,4.4c0,0,0,0.1,0,0.1l-4.9,54.4c0,0.1,0,0.1-0.1,0.2l-8.8,13.7c0,0.1-0.1,0.1-0.1,0.1c-2.7,1.6-70.1,43.5-71,44.1
	c-0.9,0.6-1,0.7-1.2,1.7c-0.7,2.8-1,28.6-0.9,29.8c0.1,1.1,0.3,1.5,1,1.7c0.7,0.2,67.6,17.5,74,19.2c0.3,0.1,0.4,0.4,0.3,0.6
	l-4.3,10.7c0,0.1-0.1,0.2-0.2,0.2l-27.2,17c-0.1,0.1-0.2,0.2-0.2,0.4l-0.6,27.1c0,0.2,0.1,0.4,0.4,0.5l51.3,12.4
	c0.3,0.1,0.5-0.1,0.6-0.4l9-46.2h0.9l6.7,10.3c0.1,0.1,0.2,0.2,0.4,0.2h9.5h9.5c0.2,0,0.3-0.1,0.4-0.2l6.7-10.3h0.9l9,46.2
	c0.1,0.3,0.3,0.4,0.6,0.4l51.3-12.4c0.2-0.1,0.4-0.2,0.4-0.5l-0.6-27.1c0-0.2-0.1-0.3-0.2-0.4l-27.2-17c-0.1-0.1-0.1-0.1-0.2-0.2
	l-4.3-10.7c-0.1-0.3,0-0.5,0.3-0.6c6.5-1.7,73.4-19,74-19.2c0.7-0.2,0.9-0.6,1-1.7C330.7,282.1,330.4,256.3,329.7,253.4z"/>
</svg>