<?xml version="1.0" encoding="utf-8"?>
<!-- Generator: Adobe Illustrator 27.1.1, SVG Export Plug-In . SVG Version: 6.00 Build 0)  -->
<svg version="1.1" id="Layer_2_00000060731407771314911630000012785343898300245400_"
	 xmlns="http://www.w3.org/2000/svg" xmlns:xlink="http://www.w3.org/1999/xlink" x="0px" y="0px" viewBox="0 0 414.7 414.7"
	 style="enable-background:new 0 0 414.7 414.7;" xml:space="preserve">
<style type="text/css">
	.st0{fill:#F5F5F5;}
</style>
<path class="st0" d="M323.5,229.1l-0.7,19.2l-83-40.1c0,0-0.7-26-2.2-41.4s-8.1-29.1-18.6-42.9c0-47.7-6-83.9-11.6-83.9
	s-11.6,36.2-11.6,83.9c-10.5,13.8-17.2,27.5-18.6,42.9s-2.2,41.4-2.2,41.4l-83,40.1l-0.7-19.2l-2-1.9v57l3.1-1.8h85.7
	c0,0-5.7,16.5-6.4,17.9c-0.7,1.4-1,2.3-0.9,3c0,0.7,0.2,7.7,0.5,12.3c0,0-28.1,31.3-28.7,32s-0.6,1.1-0.6,1.5v10.4
	c0,1.1,0,1.6,0.3,2c0,0,4,3.8,4.6,4.4c1.1,1.1,2.1,0.8,2.5,0.5s38.8-19.7,38.8-19.7l2.5,9.3h12.8c0,0,2.3-12,2.4-12.6
	c0.1-0.6,1-0.9,1.7-0.9s1.5,0.3,1.7,0.9c0.1,0.6,2.4,12.6,2.4,12.6h12.8l2.5-9.3l38.8,19.7c0,0,1.4,0.5,1.9,0s5.1-4.9,5.1-4.9
	c0.3-0.3,0.3-0.8,0.3-2v-10.4c0-0.4,0-0.9-0.6-1.5c-0.6-0.6-28.7-32-28.7-32c0.3-4.6,0.4-11.6,0.5-12.3c0-0.7-0.2-1.5-0.9-3
	s-6.4-17.9-6.4-17.9h85.7l3,1.8v-57L323.5,229.1L323.5,229.1z"/>
</svg>