<?xml version="1.0" encoding="utf-8"?>
<!-- Generator: Adobe Illustrator 27.1.1, SVG Export Plug-In . SVG Version: 6.00 Build 0)  -->
<svg version="1.1" id="Layer_2_00000060731407771314911630000012785343898300245400_"
	 xmlns="http://www.w3.org/2000/svg" xmlns:xlink="http://www.w3.org/1999/xlink" x="0px" y="0px" viewBox="0 0 414.7 414.7"
	 style="enable-background:new 0 0 414.7 414.7;" xml:space="preserve">
<style type="text/css">
	.st0{fill:#F5F5F5;}
</style>
<path class="st0" d="M395.6,220.8c0-1.3-0.9-2.2-1.9-1.6c-3.6-0.3-29.2-3.9-32.2-4.3c-2.9-0.4-95.7-13.6-95.7-13.6
	c-0.8-17.6-1.1-21.9-1.2-23.2c-0.1-1.3-2.1-7.4-3.8-7.4s-5,6.6-5.1,10.5c-0.1,3.8-0.2,18.9-0.2,18.9c-8.5-1.3-34.1-4.6-34.1-4.6
	c1-5,1.5-10.2,1.4-13.4c0.9-0.7,1.1-1.9,0-2.9c-0.3-2.8-0.5-3.3-0.6-3.9c-0.1-0.6-0.3-0.9-1.4-0.9c-1.1,0-4.6,0-4.6,0
	c-0.1-6.1-0.3-17.2-0.7-25.4s-0.9-25.1-1.4-29.3c-0.5-4.2-1.9-14.1-5.3-14.1s-4.8,9.9-5.3,14.1c-0.5,4.2-1,21.1-1.4,29.3
	s-0.6,19.4-0.7,25.4c0,0-3.5,0-4.6,0c-1.1,0-1.3,0.3-1.4,0.9c-0.1,0.6-0.3,1.1-0.6,3.9c-1.1,1.1-0.9,2.2,0,2.9
	c-0.1,3.2,0.4,8.4,1.4,13.4c0,0-25.6,3.3-34.1,4.6c0,0-0.1-15.1-0.2-18.9c-0.1-3.8-3.3-10.5-5.1-10.5s-3.7,6.2-3.8,7.4
	c-0.1,1.3-0.4,5.6-1.2,23.2c0,0-92.8,13.2-95.7,13.6c-2.9,0.4-28.5,4-32.2,4.3c-1-0.6-1.9,0.3-1.9,1.6c0,1.3-0.1,7.2,0,9.2
	c0.1,2,0.9,2.5,1.9,2.6c1,0.1,49.3,3.1,51,3.1c1.8,0,6.3,0.2,7-1c0,0,2.1,0.5,4.4,1.8c4.5,2.1,10.2,1.8,12.8,1.5
	c0.2,2.4,0.5,3.9,1.4,3.9s1.1-1.5,1.4-4.4c0,0,0.7,0,2.2,0c7.9,3,18.9,3.2,23.2,3.4c4.3,0.2,14.7,0.1,14.7,0.1s6.4-1.6,7.3-2
	c1.1,1.6,2.8,2.7,2.8,2.7c0.6,13.7,1.1,14.8,4.9,22.5c3.9-8.1,4.4-12.7,4.7-21.6c0.9-0.6,1.9-1.6,2.7-2.9l0.3,1.1
	c0,0,16.2,2.1,18.2,2.1s8.6,0,12.7,0c1.6,1.3,2.4,1.4,3.7,1.4c0,0,0,10.7,0.1,20.2c0.1,9.4,1.2,28.1,1.2,28.1s-35.4,10.6-37.2,11.2
	c-1.7,0.6-1.4,1.7-1.4,1.7s-0.2,4.5-0.3,6.7c-0.1,2.2,1.3,2.5,1.3,2.5l38.6,3.9h0.9c0,0,0.3,0.2,0.5,0.3c0,0,0.3,5,0.4,5.4
	c0.1,0.4,0.2,0.6,0.5,0.6c0.3,0,0.9,0,1.8,0c0.6,6.7,2.3,7.6,3.1,7.6s2.5-1,3.1-7.6c0.9,0,1.5,0,1.8,0c0.3,0,0.4-0.2,0.5-0.6
	c0.1-0.4,0.4-5.4,0.4-5.4c0.2-0.1,0.5-0.3,0.5-0.3h0.9l38.6-3.9c0,0,1.3-0.3,1.3-2.5c-0.1-2.2-0.3-6.7-0.3-6.7s0.3-1.1-1.4-1.7
	c-1.7-0.6-37.2-11.2-37.2-11.2s1.1-18.7,1.2-28.1c0.1-9.4,0.1-20.2,0.1-20.2c1.2,0,2.1-0.1,3.7-1.4c4.1,0,10.7,0,12.7,0
	s18.2-2.1,18.2-2.1l0.3-1.1c0.8,1.3,1.8,2.3,2.7,2.9c0.2,8.9,0.8,13.5,4.7,21.6c3.8-7.6,4.3-8.8,4.9-22.5c0,0,1.8-1.1,2.8-2.7
	c1,0.4,7.3,2,7.3,2s10.4,0.1,14.7-0.1c4.3-0.2,15.3-0.4,23.2-3.4c1.6,0,2.2,0,2.2,0c0.3,2.9,0.5,4.4,1.4,4.4s1.2-1.5,1.4-3.9
	c2.6,0.3,8.3,0.6,12.8-1.5c2.3-1.3,4.4-1.8,4.4-1.8c0.8,1.2,5.3,1,7,1c1.8,0,50.1-3,51-3.1c1-0.1,1.8-0.7,1.9-2.6
	C395.7,228,395.6,222,395.6,220.8z"/>
</svg>